# xmcd
#
# Track frame offsets:
#	150
#	14738
#	33044
#	46862
#	66232
#	86099
#	106455
#	123035
#	137073
#	154432
#	178625
#
# Disc length: 2810 seconds
#
# Revision: 0
# Processed by: cddbd v1.4PL0 Copyright (c) Steve Scherf et al.
# Submitted via: EasyCDDAExtractor 4.6.9.1
#
DISCID=900af80b
DTITLE=Max Stalling - Wide Afternoon
DYEAR=2000
DGENRE=Country
TTITLE0=Green Lights
TTITLE1=Runnin' Buddy
TTITLE2=Blue Eyes
TTITLE3=Bass Run
TTITLE4=Travelin' Lite
TTITLE5=Scars and Souvenirs
TTITLE6=These Reminders
TTITLE7=Dime Box, TX
TTITLE8=Simple Girl
TTITLE9=Heat of the Wide Afternoon
TTITLE10=Cowboy From Catarina
EXTD=
EXTT0=
EXTT1=
EXTT2=
EXTT3=
EXTT4=
EXTT5=
EXTT6=
EXTT7=
EXTT8=
EXTT9=
EXTT10=
PLAYORDER=
